<?xml version="1.0"?>
<svg xmlns="http://www.w3.org/2000/svg" xmlns:xlink="http://www.w3.org/1999/xlink" xmlns:svgjs="http://svgjs.com/svgjs" version="1.1" width="512" height="512" x="0" y="0" viewBox="0 0 512 512" style="enable-background:new 0 0 512 512" xml:space="preserve" class=""><g><path xmlns="http://www.w3.org/2000/svg" d="M224.971,224.971a24,24,0,0,1-33.942,0L88,121.941V88h33.941l103.03,103.029A24,24,0,0,1,224.971,224.971ZM424,424V390.059L320.971,287.029a24,24,0,0,0-33.942,33.942L390.059,424ZM72,176V72H176a24,24,0,0,0,0-48H48A24,24,0,0,0,24,48V176a24,24,0,0,0,48,0ZM488,464V336a24,24,0,0,0-48,0V440H336a24,24,0,0,0,0,48H464A24,24,0,0,0,488,464Z" fill="#e63657" data-original="#000000" style=""/></g></svg>
