<?xml version="1.0" encoding="utf-8"?>
<!-- Generator: Adobe Illustrator 25.2.3, SVG Export Plug-In . SVG Version: 6.00 Build 0)  -->
<svg version="1.1" id="Layer_1" xmlns:svgjs="http://svgjs.com/svgjs"
	 xmlns="http://www.w3.org/2000/svg" xmlns:xlink="http://www.w3.org/1999/xlink" x="0px" y="0px" viewBox="0 0 512 512"
	 style="enable-background:new 0 0 512 512;" xml:space="preserve">
<style type="text/css">
	.st0{fill:#005BAA;}
</style>
<g>
	<path class="st0" d="M225,225c-9.4,9.4-24.6,9.4-33.9,0c0,0,0,0,0,0l-103-103V88h33.9l103,103c9.7,9,10.8,23.6,1.8,33.3
		C226.4,224.8,226,225.2,225,225z M424,424v-33.9L321,287c-9.4-9.4-24.6-9.4-33.9,0s-9.4,24.6,0,33.9l103,103H424z M72,176V72h104
		c13.3,0,24-10.7,24-24s-10.7-24-24-24H48c-13.3,0-24,10.7-24,24v128c0,13.3,10.7,24,24,24S72,189.3,72,176z M488,464V336
		c0-13.3-10.7-24-24-24s-24,10.7-24,24v104H336c-13.3,0-24,10.7-24,24s10.7,24,24,24h128C477.3,488,488,477.3,488,464L488,464z"/>
</g>
</svg>
