<?xml version="1.0" encoding="utf-8"?>
<!-- Generator: Adobe Illustrator 25.2.3, SVG Export Plug-In . SVG Version: 6.00 Build 0)  -->
<svg version="1.1" id="Layer_1" xmlns="http://www.w3.org/2000/svg" xmlns:xlink="http://www.w3.org/1999/xlink" x="0px" y="0px"
	 viewBox="0 0 428 151" style="enable-background:new 0 0 428 151;" xml:space="preserve">
<style type="text/css">
	.st0{fill:#005AA9;}
	.st1{fill:none;}
</style>
<g>
	<g>
		<g>
			<g>
				<g>
					<g>
						<g>
							<path className="st0" d="M75.9-0.5C34.3-0.5,0.5,33.3,0.5,75c0,41.7,33.8,75.4,75.4,75.4c41.7,0,75.4-33.8,75.4-75.4
								C151.4,33.3,117.6-0.5,75.9-0.5z M75.9,145.8c-39.1,0-70.8-31.7-70.8-70.8S36.8,4.2,75.9,4.2c39.1,0,70.8,31.7,70.8,70.8
								S115,145.8,75.9,145.8z"/>
						</g>
					</g>
					<g id="rect2887_9_">
						<g>
							<path className="st0" d="M76.6,17.8c0,0-1.1,0.5-1.2,1C75.1,19.5,76,20.3,76,21c0,1-1.1,1.8-1.1,2.8c0,0.7,0.8,1.4,0.6,2.1
								c-0.1,0.5-0.5,1.1-1,1c-0.5,0-0.9-0.6-0.9-1c-0.1-0.8,1-1.4,1-2.3c0-0.6-0.7-1-0.7-1.6c0-0.4,0.5-0.9,0.5-0.9
								s-1.3,0.6-1.5,1.3c-0.1,0.5,0.4,0.9,0.3,1.4c-0.1,1.2-1.6,2-1.6,3.1c0,1.1,0.5,2.3,1.3,3.1c0.8,0.8,1.9,1.2,2.9,1.2
								c1.1,0,2.3-0.4,3.1-1.2c0.8-0.8,1.3-2,1.3-3.1c0-1-1-1.8-1-2.8c0-0.5,0.6-1,0.5-1.6c-0.1-0.7-1.3-1.7-1.3-1.7s0.3,1,0.2,1.4
								c-0.1,0.7-0.9,1.1-0.9,1.7c-0.1,0.7,0.7,1.3,0.6,1.9c-0.1,0.4-0.4,1-0.8,1c-0.5,0-0.8-0.6-0.9-1c-0.2-0.9,0.9-1.8,0.8-2.8
								c-0.1-1.5-1.5-2.7-1.4-4.2C76.3,18.5,76.6,17.8,76.6,17.8z M75.9,32.7c-3.8,0-6.8,3-6.8,6.8c0,3.8,3.1,6.8,6.8,6.8
								c3.8,0,6.8-3.1,6.8-6.8C82.7,35.8,79.7,32.7,75.9,32.7z M66.4,40.5c0,0.3,0,0.6,0,0.9c0,5.3,4.3,9.6,9.6,9.6
								c5.3,0,9.6-4.3,9.6-9.6c0-0.3,0-0.6,0-0.9c-1.2,4.2-5,7.2-9.5,7.2C71.4,47.7,67.6,44.7,66.4,40.5L66.4,40.5z M57.8,52.6v40.2
								h8.4V52.6H57.8z M67.6,52.6l8.3,5.5l8.3-5.5H67.6z M85.7,52.6v40.2h8.4V52.6H85.7z M67.6,59.4v3.5h3.6h9.4h3.7v-3.5h-3.7
								h-9.4H67.6z M74.6,64.1c-0.4,0-0.7,0.1-1.1,0.1c-3.6,0.7-6.2,4.3-6.2,8.2c0,3.9,2.6,7.2,6.1,8.2c-1.3-0.8-2.2-2.2-2.3-3.8v0
								c0-1.9,1.2-3.6,2.9-4.3c0.5-0.2,1.1-0.3,1.8-0.3h0c2.2,0,4-1.8,4-4C79.7,65.3,77.1,64,74.6,64.1L74.6,64.1z M78.4,64.3
								c1.3,0.8,2.2,2.2,2.3,3.8v0c0,1.9-1.2,3.6-2.9,4.3c-0.5,0.2-1.1,0.3-1.8,0.3h0c-2.2,0-4,1.8-4,4c0.3,2.8,2.8,4.2,5.4,4.1
								c0.4,0,0.7-0.1,1.1-0.1c3.6-0.8,6.2-4.3,6.2-8.2C84.5,68.6,82,65.3,78.4,64.3L78.4,64.3z M75.9,66.5c0.9,0,1.6,0.7,1.6,1.6
								c0,0.9-0.7,1.6-1.6,1.6c-0.9,0-1.6-0.7-1.6-1.6C74.4,67.2,75.1,66.5,75.9,66.5z M75.9,75.3c0.9,0,1.6,0.7,1.6,1.6
								c0,0.9-0.7,1.6-1.6,1.6c-0.9,0-1.6-0.7-1.6-1.6C74.4,76,75.1,75.3,75.9,75.3z M67.6,82.4v3.5h3.6h9.4h3.7v-3.5h-3.7h-9.4
								H67.6z M67.6,87.3l8.3,5.5l8.3-5.5H67.6z"/>
						</g>
					</g>
					<g>
						<path className="st0" d="M57.3,139.7c4.6,1.3,9.4,2.2,14.3,2.5v-16.9L57.3,117V139.7z"/>
					</g>
					<g>
						<path className="st0" d="M80.3,142.2c4.9-0.3,9.7-1.1,14.3-2.4v-24.1L80.3,125V142.2z"/>
					</g>
					<g>
						<path className="st0" d="M103.3,136.6c5.1-2.3,9.9-5.2,14.3-8.6v-27.5l-14.3,9.4V136.6z"/>
					</g>
					<g>
						<path className="st0" d="M140.6,94.7v-9.2l-14.3,9.4v25.1C132.7,112.7,137.7,104.1,140.6,94.7z"/>
					</g>
					<g>
						<path className="st0" d="M34.3,127.8c4.4,3.5,9.2,6.4,14.3,8.7v-19.4l-14.3,8.3V127.8z"/>
					</g>
					<g>
						<path className="st0" d="M76,119.7l-23-13.3l-25.8,14.9c1.1,1.1,2.1,2.2,3.3,3.2l22.5-13l23,13.3l64.6-42.4L76,119.7z"/>
					</g>
				</g>
			</g>
			<g>
				<path className="st0" d="M207.4,50h-5.3l-7.8-13.7V50h-5.3V28h5.3l7.8,13.7V28h5.3V50z"/>
				<path className="st0" d="M223.5,45.9h-7.3l-1.3,4.1h-5.7l8.1-22h5l8.1,22h-5.7L223.5,45.9z M217.5,41.8h4.7l-2.4-7.6L217.5,41.8z"/>
				<path className="st0" d="M247.6,32.1H241V50h-5.3V32.1h-6.5V28h18.4V32.1z"/>
				<path className="st0" d="M255.5,50h-5.3V28h5.3V50z"/>
				<path className="st0" d="M277.9,39.4c0,2.1-0.4,4.1-1.2,5.7c-0.8,1.7-1.9,2.9-3.4,3.8c-1.5,0.9-3.1,1.3-5,1.3c-1.9,0-3.5-0.4-5-1.3
					c-1.5-0.9-2.6-2.1-3.4-3.7s-1.2-3.4-1.3-5.5v-1.2c0-2.2,0.4-4.1,1.2-5.7c0.8-1.7,1.9-2.9,3.4-3.8s3.2-1.3,5-1.3
					c1.9,0,3.5,0.4,5,1.3c1.5,0.9,2.6,2.2,3.4,3.8c0.8,1.6,1.2,3.5,1.2,5.6V39.4z M272.5,38.5c0-2.2-0.4-3.9-1.1-5
					c-0.7-1.1-1.8-1.7-3.1-1.7c-2.7,0-4.1,2-4.2,6l0,1.6c0,2.2,0.4,3.8,1.1,5s1.8,1.7,3.2,1.7c1.3,0,2.4-0.6,3.1-1.7
					c0.7-1.1,1.1-2.8,1.1-4.9V38.5z"/>
				<path className="st0" d="M299,50h-5.3l-7.8-13.7V50h-5.3V28h5.3l7.8,13.7V28h5.3V50z"/>
				<path className="st0" d="M315.2,45.9h-7.3l-1.3,4.1h-5.7l8.1-22h5l8.1,22h-5.7L315.2,45.9z M309.2,41.8h4.7l-2.4-7.6L309.2,41.8z"/>
				<path className="st0" d="M329.1,45.9h9.2V50h-14.6V28h5.3V45.9z"/>
			</g>
			<g>
				<path className="st0" d="M199.4,79.9c0-0.8-0.3-1.4-0.8-1.8c-0.6-0.4-1.5-0.9-2.9-1.3c-1.4-0.5-2.5-0.9-3.4-1.3
					c-2.9-1.4-4.3-3.3-4.3-5.8c0-1.2,0.4-2.3,1.1-3.2c0.7-0.9,1.7-1.7,3-2.2c1.3-0.5,2.8-0.8,4.4-0.8c1.6,0,3,0.3,4.3,0.8
					c1.3,0.6,2.2,1.4,2.9,2.4c0.7,1,1,2.2,1,3.6h-5.3c0-0.9-0.3-1.6-0.8-2.1c-0.6-0.5-1.3-0.7-2.2-0.7c-0.9,0-1.7,0.2-2.2,0.6
					c-0.6,0.4-0.8,1-0.8,1.6c0,0.6,0.3,1.1,0.9,1.5c0.6,0.5,1.7,0.9,3.2,1.4c1.5,0.5,2.8,1,3.8,1.6c2.4,1.4,3.6,3.3,3.6,5.7
					c0,1.9-0.7,3.4-2.2,4.5c-1.5,1.1-3.4,1.7-6,1.7c-1.8,0-3.4-0.3-4.9-1c-1.4-0.6-2.5-1.5-3.3-2.6s-1.1-2.4-1.1-3.9h5.3
					c0,1.2,0.3,2.1,0.9,2.6c0.6,0.6,1.6,0.8,3,0.8c0.9,0,1.6-0.2,2.1-0.6C199.1,81.1,199.4,80.6,199.4,79.9z"/>
				<path className="st0" d="M224.7,67.8h-6.6v17.9h-5.3V67.8h-6.5v-4.1h18.4V67.8z"/>
				<path className="st0" d="M237.7,81.6h-7.3l-1.3,4.1h-5.7l8.1-22h5l8.1,22H239L237.7,81.6z M231.7,77.5h4.7l-2.4-7.6L231.7,77.5z"/>
				<path className="st0" d="M261.8,67.8h-6.6v17.9h-5.3V67.8h-6.5v-4.1h18.4V67.8z"/>
				<path className="st0" d="M269.7,85.7h-5.3v-22h5.3V85.7z"/>
				<path className="st0" d="M284.7,79.9c0-0.8-0.3-1.4-0.8-1.8c-0.5-0.4-1.5-0.9-2.9-1.3c-1.4-0.5-2.5-0.9-3.4-1.3
					c-2.9-1.4-4.3-3.3-4.3-5.8c0-1.2,0.4-2.3,1.1-3.2c0.7-0.9,1.7-1.7,3-2.2c1.3-0.5,2.8-0.8,4.4-0.8c1.6,0,3,0.3,4.3,0.8
					c1.3,0.6,2.2,1.4,2.9,2.4c0.7,1,1,2.2,1,3.6h-5.3c0-0.9-0.3-1.6-0.8-2.1c-0.6-0.5-1.3-0.7-2.2-0.7c-0.9,0-1.7,0.2-2.2,0.6
					c-0.6,0.4-0.8,1-0.8,1.6c0,0.6,0.3,1.1,0.9,1.5c0.6,0.5,1.7,0.9,3.2,1.4c1.5,0.5,2.8,1,3.8,1.6c2.4,1.4,3.6,3.3,3.6,5.7
					c0,1.9-0.7,3.4-2.2,4.5c-1.5,1.1-3.4,1.7-6,1.7c-1.8,0-3.4-0.3-4.9-1c-1.4-0.6-2.5-1.5-3.3-2.6s-1.1-2.4-1.1-3.9h5.3
					c0,1.2,0.3,2.1,0.9,2.6c0.6,0.6,1.6,0.8,3,0.8c0.9,0,1.6-0.2,2.1-0.6C284.5,81.1,284.7,80.6,284.7,79.9z"/>
				<path className="st0" d="M310.1,67.8h-6.6v17.9h-5.3V67.8h-6.5v-4.1h18.4V67.8z"/>
				<path className="st0" d="M318,85.7h-5.3v-22h5.3V85.7z"/>
				<path className="st0" d="M339.5,78.3c-0.1,1.5-0.5,2.9-1.2,4.1s-1.8,2.1-3.2,2.7c-1.4,0.6-2.9,1-4.7,1c-2.9,0-5.2-0.9-6.8-2.8
					c-1.7-1.9-2.5-4.6-2.5-8v-1.1c0-2.2,0.4-4,1.1-5.7s1.8-2.9,3.2-3.8s3-1.3,4.9-1.3c2.7,0,4.8,0.7,6.5,2.1
					c1.6,1.4,2.5,3.3,2.8,5.8h-5.3c0-1.3-0.4-2.3-1-2.9s-1.6-0.9-2.9-0.9c-1.3,0-2.3,0.5-2.9,1.5c-0.6,1-0.9,2.6-1,4.7v1.6
					c0,2.4,0.3,4,0.9,5c0.6,1,1.6,1.5,3.1,1.5c1.2,0,2.2-0.3,2.8-0.9c0.6-0.6,1-1.5,1-2.7H339.5z"/>
				<path className="st0" d="M353.4,79.9c0-0.8-0.3-1.4-0.8-1.8c-0.5-0.4-1.5-0.9-2.9-1.3c-1.4-0.5-2.5-0.9-3.4-1.3
					c-2.9-1.4-4.3-3.3-4.3-5.8c0-1.2,0.4-2.3,1.1-3.2c0.7-0.9,1.7-1.7,3-2.2c1.3-0.5,2.8-0.8,4.4-0.8c1.6,0,3,0.3,4.3,0.8
					c1.3,0.6,2.2,1.4,2.9,2.4c0.7,1,1,2.2,1,3.6h-5.3c0-0.9-0.3-1.6-0.8-2.1c-0.6-0.5-1.3-0.7-2.2-0.7c-0.9,0-1.7,0.2-2.2,0.6
					c-0.6,0.4-0.8,1-0.8,1.6c0,0.6,0.3,1.1,0.9,1.5c0.6,0.5,1.7,0.9,3.2,1.4c1.5,0.5,2.8,1,3.8,1.6c2.4,1.4,3.6,3.3,3.6,5.7
					c0,1.9-0.7,3.4-2.2,4.5c-1.5,1.1-3.4,1.7-6,1.7c-1.8,0-3.4-0.3-4.9-1c-1.4-0.6-2.5-1.5-3.3-2.6s-1.1-2.4-1.1-3.9h5.3
					c0,1.2,0.3,2.1,0.9,2.6c0.6,0.6,1.6,0.8,3,0.8c0.9,0,1.6-0.2,2.1-0.6C353.1,81.1,353.4,80.6,353.4,79.9z"/>
			</g>
			<g>
				<path className="st0" d="M207.5,110.8c0,2.1-0.4,4.1-1.2,5.7c-0.8,1.7-1.9,2.9-3.4,3.8c-1.5,0.9-3.1,1.3-5,1.3c-1.9,0-3.5-0.4-5-1.3
					c-1.5-0.9-2.6-2.1-3.4-3.7s-1.2-3.4-1.3-5.5v-1.2c0-2.2,0.4-4.1,1.2-5.7c0.8-1.7,1.9-2.9,3.4-3.8c1.5-0.9,3.2-1.3,5-1.3
					c1.9,0,3.5,0.4,5,1.3c1.5,0.9,2.6,2.2,3.4,3.8c0.8,1.6,1.2,3.5,1.2,5.6V110.8z M202.1,109.9c0-2.2-0.4-3.9-1.1-5
					c-0.7-1.1-1.8-1.7-3.1-1.7c-2.7,0-4.1,2-4.2,6l0,1.6c0,2.2,0.4,3.8,1.1,5c0.7,1.2,1.8,1.7,3.2,1.7c1.3,0,2.4-0.6,3.1-1.7
					s1.1-2.8,1.1-4.9V109.9z"/>
				<path className="st0" d="M224.1,112.6h-8.6v8.8h-5.3v-22H225v4.1h-9.4v5.1h8.6V112.6z"/>
				<path className="st0" d="M241.1,112.6h-8.6v8.8h-5.3v-22h14.7v4.1h-9.4v5.1h8.6V112.6z"/>
				<path className="st0" d="M249.8,121.4h-5.3v-22h5.3V121.4z"/>
				<path className="st0" d="M271.4,113.9c-0.1,1.5-0.5,2.9-1.2,4.1s-1.8,2.1-3.2,2.7c-1.4,0.6-2.9,1-4.7,1c-2.9,0-5.2-0.9-6.8-2.8
					c-1.7-1.9-2.5-4.6-2.5-8v-1.1c0-2.2,0.4-4,1.1-5.7s1.8-2.9,3.2-3.8c1.4-0.9,3-1.3,4.9-1.3c2.7,0,4.8,0.7,6.5,2.1
					c1.6,1.4,2.5,3.3,2.8,5.8h-5.3c0-1.3-0.4-2.3-1-2.9c-0.6-0.6-1.6-0.9-2.9-0.9c-1.3,0-2.3,0.5-2.9,1.5c-0.6,1-0.9,2.6-1,4.7v1.6
					c0,2.4,0.3,4,0.9,5c0.6,1,1.6,1.5,3.1,1.5c1.2,0,2.2-0.3,2.8-0.9c0.6-0.6,1-1.5,1-2.7H271.4z"/>
				<path className="st0" d="M287.5,112h-8.4v5.3h9.9v4.1h-15.2v-22h15.2v4.1h-9.9v4.6h8.4V112z"/>
			</g>
		</g>
	</g>
	<rect x="0.5" y="-0.5" className="st1" width="428" height="150.9"/>
</g>
</svg>
