<?xml version="1.0" encoding="utf-8"?>
<!-- Generator: Adobe Illustrator 25.2.3, SVG Export Plug-In . SVG Version: 6.00 Build 0)  -->
<svg version="1.1" xmlns="http://www.w3.org/2000/svg" xmlns:xlink="http://www.w3.org/1999/xlink" x="0px" y="0px"
	 viewBox="0 0 428 151" style="enable-background:new 0 0 428 151;" xml:space="preserve">
<style type="text/css">
	.st0{fill:#005AA9;}
</style>
<g id="eng">
</g>
<g id="mon">
	<g>
		<g>w
			<g>
				<g>
					<g>
						<path class="st0" d="M196.6,38.3l4.1-9.6h5.7l-7.1,14.1v7.9h-5.4v-7.9l-7.1-14.1h5.7L196.6,38.3z"/>
						<path class="st0" d="M226.5,50.8h-5.3v-9.2h-7.8v9.2H208v-22h5.3v8.8h7.8v-8.8h5.3V50.8z"/>
						<path class="st0" d="M250.8,56.2H246v-5.4h-12v5.4h-4.9l-0.4-9.5h1.6c0.8-0.5,1.5-1.5,2-2.8c0.5-1.3,0.9-3.2,1.1-5.7l0.7-9.4
							h15v18h2.3L250.8,56.2z M236.3,46.7h7.4V32.9H239l-0.4,5.5C238.3,42,237.5,44.7,236.3,46.7z"/>
						<path class="st0" d="M257,43.4c0.1,2.5,1.4,3.7,3.8,3.7c1.3,0,2.2-0.4,2.9-1.2c0.6-0.8,1-2.1,1.1-4h-6.1v-4.1h6.1
							c-0.1-1.8-0.5-3.1-1.2-4c-0.7-0.8-1.6-1.2-2.7-1.2c-1.3,0-2.3,0.3-2.9,0.9c-0.6,0.6-1,1.6-1,2.9h-5.3c0.2-2.5,1.1-4.4,2.8-5.8
							c1.6-1.4,3.8-2.1,6.4-2.1c1.8,0,3.5,0.4,4.9,1.3c1.4,0.9,2.5,2.1,3.3,3.7c0.8,1.6,1.1,3.5,1.1,5.7v1.2c0,3.4-0.8,6-2.5,7.9
							c-1.7,1.9-3.9,2.8-6.8,2.8c-1.7,0-3.3-0.3-4.7-1c-1.4-0.6-2.4-1.6-3.2-2.7c-0.8-1.2-1.2-2.5-1.3-4.1H257z"/>
						<path class="st0" d="M290.7,43.4c-0.1,1.5-0.5,2.9-1.2,4.1c-0.8,1.2-1.8,2.1-3.2,2.7c-1.4,0.6-2.9,1-4.7,1
							c-2.9,0-5.2-0.9-6.8-2.8c-1.7-1.9-2.5-4.6-2.5-8v-1.1c0-2.2,0.4-4.1,1.1-5.7c0.8-1.6,1.8-2.9,3.2-3.8c1.4-0.9,3-1.3,4.9-1.3
							c2.7,0,4.8,0.7,6.4,2.1c1.6,1.4,2.5,3.3,2.8,5.8h-5.3c0-1.3-0.4-2.3-1-2.9c-0.6-0.6-1.6-0.9-2.9-0.9c-1.3,0-2.3,0.5-2.9,1.5
							c-0.6,1-0.9,2.6-1,4.7v1.6c0,2.4,0.3,4,0.9,5c0.6,1,1.6,1.5,3.1,1.5c1.2,0,2.2-0.3,2.8-0.9c0.6-0.6,1-1.5,1-2.7H290.7z"/>
						<path class="st0" d="M311.6,50.8h-5.3v-9.2h-7.8v9.2h-5.3v-22h5.3v8.8h7.8v-8.8h5.3V50.8z"/>
						<path class="st0" d="M327.9,28.8h5.3v22h-5.3V36.9L320,50.8h-5.3v-22h5.3v13.9L327.9,28.8z"/>
						<path class="st0" d="M349.4,28.8h5.3v22h-5.3V36.9l-7.9,13.9h-5.3v-22h5.3v13.9L349.4,28.8z M351.1,22.8
							c0,1.4-0.5,2.5-1.5,3.4c-1,0.9-2.4,1.3-4.1,1.3c-1.7,0-3.1-0.4-4.1-1.3c-1-0.9-1.5-2-1.5-3.4h3.5c0,0.6,0.2,1.1,0.6,1.4
							c0.4,0.3,0.9,0.5,1.6,0.5c0.7,0,1.2-0.2,1.6-0.5c0.4-0.3,0.6-0.8,0.6-1.4H351.1z"/>
					</g>
					<g>
						<path class="st0" d="M205.5,79.1c-0.1,1.5-0.5,2.9-1.2,4.1c-0.8,1.2-1.8,2.1-3.2,2.7c-1.4,0.6-2.9,1-4.7,1
							c-2.9,0-5.2-0.9-6.8-2.8c-1.7-1.9-2.5-4.6-2.5-8v-1.1c0-2.2,0.4-4.1,1.1-5.7c0.8-1.6,1.8-2.9,3.2-3.8c1.4-0.9,3-1.3,4.9-1.3
							c2.7,0,4.8,0.7,6.4,2.1c1.6,1.4,2.5,3.3,2.8,5.8h-5.3c0-1.3-0.4-2.3-1-2.9c-0.6-0.6-1.6-0.9-2.9-0.9c-1.3,0-2.3,0.5-2.9,1.5
							c-0.6,1-0.9,2.6-1,4.7v1.6c0,2.4,0.3,4,0.9,5c0.6,1,1.6,1.5,3.1,1.5c1.2,0,2.2-0.3,2.8-0.9c0.6-0.6,1-1.5,1-2.7H205.5z"/>
						<path class="st0" d="M224.9,68.6h-6.6v17.9h-5.3V68.6h-6.5v-4.1h18.4V68.6z"/>
						<path class="st0" d="M237.8,82.4h-7.3l-1.3,4.1h-5.7l8.1-22h5l8.1,22h-5.7L237.8,82.4z M231.8,78.3h4.7l-2.4-7.6L231.8,78.3z"
							/>
						<path class="st0" d="M261.9,68.6h-6.6v17.9H250V68.6h-6.5v-4.1h18.4V68.6z"/>
						<path class="st0" d="M277.1,64.5h5.3v22h-5.3V72.6l-7.9,13.9h-5.3v-22h5.3v13.9L277.1,64.5z"/>
						<path class="st0" d="M303.4,79.1c-0.1,1.5-0.5,2.9-1.2,4.1c-0.8,1.2-1.8,2.1-3.2,2.7c-1.4,0.6-2.9,1-4.7,1
							c-2.9,0-5.2-0.9-6.8-2.8c-1.7-1.9-2.5-4.6-2.5-8v-1.1c0-2.2,0.4-4.1,1.1-5.7c0.8-1.6,1.8-2.9,3.2-3.8c1.4-0.9,3-1.3,4.9-1.3
							c2.7,0,4.8,0.7,6.4,2.1c1.6,1.4,2.5,3.3,2.8,5.8h-5.3c0-1.3-0.4-2.3-1-2.9c-0.6-0.6-1.6-0.9-2.9-0.9c-1.3,0-2.3,0.5-2.9,1.5
							c-0.6,1-0.9,2.6-1,4.7v1.6c0,2.4,0.3,4,0.9,5c0.6,1,1.6,1.5,3.1,1.5c1.2,0,2.2-0.3,2.8-0.9c0.6-0.6,1-1.5,1-2.7H303.4z"/>
						<path class="st0" d="M322.8,68.6h-6.6v17.9h-5.3V68.6h-6.5v-4.1h18.4V68.6z"/>
						<path class="st0" d="M338,64.5h5.3v22H338V72.6l-7.9,13.9h-5.3v-22h5.3v13.9L338,64.5z"/>
						<path class="st0" d="M354.3,77.8h-2.5v8.7h-5.3v-22h5.3V73h2l4.2-8.5h6.4l-6.1,10.2l6.8,11.9H359L354.3,77.8z"/>
						<path class="st0" d="M379.5,64.5h5.3v22h-5.3V72.6l-7.9,13.9h-5.3v-22h5.3v13.9L379.5,64.5z"/>
						<path class="st0" d="M401,64.5h5.3v22H401V72.6l-7.9,13.9h-5.3v-22h5.3v13.9L401,64.5z M402.7,58.5c0,1.4-0.5,2.5-1.5,3.4
							c-1,0.9-2.4,1.3-4.1,1.3c-1.7,0-3.1-0.4-4.1-1.3c-1-0.9-1.5-2-1.5-3.4h3.5c0,0.6,0.2,1.1,0.6,1.4c0.4,0.3,0.9,0.5,1.6,0.5
							c0.7,0,1.2-0.2,1.6-0.5c0.4-0.3,0.6-0.8,0.6-1.4H402.7z"/>
						<path class="st0" d="M428,86.5h-5.3v-9.2h-7.8v9.2h-5.3v-22h5.3v8.8h7.8v-8.8h5.3V86.5z"/>
					</g>
					<g>
						<path class="st0" d="M196.7,107.5l3.6-7.3h6.1l-6.2,10.9l6.3,11.1h-6.1l-3.7-7.5l-3.7,7.5h-6.1l6.3-11.1l-6.1-10.9h6.1
							L196.7,107.5z"/>
						<path class="st0" d="M226.5,111.6c0,2.1-0.4,4.1-1.2,5.7c-0.8,1.7-1.9,2.9-3.4,3.8c-1.5,0.9-3.1,1.3-5,1.3
							c-1.9,0-3.5-0.4-5-1.3c-1.5-0.9-2.6-2.1-3.4-3.7c-0.8-1.6-1.2-3.4-1.3-5.5v-1.2c0-2.2,0.4-4.1,1.2-5.7
							c0.8-1.7,1.9-2.9,3.4-3.8c1.5-0.9,3.2-1.3,5-1.3c1.9,0,3.5,0.4,5,1.3c1.5,0.9,2.6,2.2,3.4,3.8c0.8,1.6,1.2,3.5,1.2,5.6V111.6z
							 M221.1,110.7c0-2.2-0.4-3.9-1.1-5c-0.7-1.1-1.8-1.7-3.1-1.7c-2.7,0-4.1,2-4.2,6l0,1.6c0,2.2,0.4,3.8,1.1,5
							c0.7,1.2,1.8,1.7,3.2,1.7c1.3,0,2.4-0.6,3.1-1.7c0.7-1.1,1.1-2.8,1.1-4.9V110.7z"/>
						<path class="st0" d="M234.6,114.7v7.5h-5.3v-22h8.8c1.7,0,3.2,0.3,4.5,0.9c1.3,0.6,2.3,1.5,3,2.6c0.7,1.1,1.1,2.4,1.1,3.9
							c0,2.1-0.8,3.9-2.3,5.2c-1.5,1.3-3.7,1.9-6.3,1.9H234.6z M234.6,110.6h3.5c1,0,1.8-0.3,2.4-0.8c0.5-0.5,0.8-1.2,0.8-2.2
							c0-1-0.3-1.9-0.8-2.5s-1.3-0.9-2.3-0.9h-3.5V110.6z"/>
						<path class="st0" d="M268.1,111.6c0,2.1-0.4,4.1-1.2,5.7c-0.8,1.7-1.9,2.9-3.4,3.8c-1.5,0.9-3.1,1.3-5,1.3s-3.5-0.4-5-1.3
							c-1.5-0.9-2.6-2.1-3.4-3.7c-0.8-1.6-1.2-3.4-1.3-5.5v-1.2c0-2.2,0.4-4.1,1.2-5.7c0.8-1.7,1.9-2.9,3.4-3.8
							c1.5-0.9,3.2-1.3,5-1.3c1.9,0,3.5,0.4,5,1.3c1.5,0.9,2.6,2.2,3.4,3.8c0.8,1.6,1.2,3.5,1.2,5.6V111.6z M262.7,110.7
							c0-2.2-0.4-3.9-1.1-5c-0.7-1.1-1.8-1.7-3.1-1.7c-2.7,0-4.1,2-4.2,6l0,1.6c0,2.2,0.4,3.8,1.1,5c0.7,1.2,1.8,1.7,3.2,1.7
							c1.3,0,2.4-0.6,3.1-1.7s1.1-2.8,1.1-4.9V110.7z"/>
						<path class="st0" d="M289.5,111.6c0,2.1-0.4,4.1-1.2,5.7c-0.8,1.7-1.9,2.9-3.4,3.8c-1.5,0.9-3.1,1.3-5,1.3s-3.5-0.4-5-1.3
							c-1.5-0.9-2.6-2.1-3.4-3.7c-0.8-1.6-1.2-3.4-1.3-5.5v-1.2c0-2.2,0.4-4.1,1.2-5.7c0.8-1.7,1.9-2.9,3.4-3.8
							c1.5-0.9,3.2-1.3,5-1.3c1.9,0,3.5,0.4,5,1.3c1.5,0.9,2.6,2.2,3.4,3.8c0.8,1.6,1.2,3.5,1.2,5.6V111.6z M284.1,110.7
							c0-2.2-0.4-3.9-1.1-5c-0.7-1.1-1.8-1.7-3.1-1.7c-2.7,0-4.1,2-4.2,6l0,1.6c0,2.2,0.4,3.8,1.1,5c0.7,1.2,1.8,1.7,3.2,1.7
							c1.3,0,2.4-0.6,3.1-1.7s1.1-2.8,1.1-4.9V110.7z"/>
					</g>
				</g>
			</g>
			<g>
				<g>
					<g>
						<g>
							<g>
								<path class="st0" d="M75.4,0.1C33.8,0.1,0,33.8,0,75.5c0,41.7,33.8,75.4,75.4,75.4c41.7,0,75.4-33.8,75.4-75.4
									C150.9,33.8,117.1,0.1,75.4,0.1z M75.4,146.3c-39.1,0-70.8-31.7-70.8-70.8S36.3,4.7,75.4,4.7c39.1,0,70.8,31.7,70.8,70.8
									S114.5,146.3,75.4,146.3z"/>
							</g>
						</g>
						<g id="rect2887_1_">
							<g>
								<path class="st0" d="M76.1,18.4c0,0-1.1,0.5-1.2,1c-0.2,0.7,0.7,1.4,0.6,2.2c0,1-1.1,1.8-1.1,2.8c0,0.7,0.8,1.4,0.6,2.1
									c-0.1,0.5-0.5,1.1-1,1c-0.5,0-0.9-0.6-0.9-1c-0.1-0.8,1-1.4,1-2.3c0-0.6-0.7-1-0.7-1.6c0-0.4,0.5-0.9,0.5-0.9
									s-1.3,0.6-1.5,1.3c-0.1,0.5,0.4,0.9,0.3,1.4c-0.1,1.2-1.6,2-1.6,3.1c0,1.1,0.5,2.3,1.3,3.1c0.8,0.8,1.9,1.2,2.9,1.2
									c1.1,0,2.3-0.4,3.1-1.2c0.8-0.8,1.3-2,1.3-3.1c0-1-1-1.8-1-2.8c0-0.5,0.6-1,0.5-1.6c-0.1-0.7-1.3-1.7-1.3-1.7s0.3,1,0.2,1.4
									c-0.1,0.7-0.9,1.1-0.9,1.7c-0.1,0.7,0.7,1.3,0.6,1.9c-0.1,0.4-0.4,1-0.8,1c-0.5,0-0.8-0.6-0.9-1c-0.2-0.9,0.9-1.8,0.8-2.8
									c-0.1-1.5-1.5-2.7-1.4-4.2C75.8,19.1,76.1,18.4,76.1,18.4z M75.4,33.3c-3.8,0-6.8,3-6.8,6.8c0,3.8,3.1,6.8,6.8,6.8
									c3.8,0,6.8-3.1,6.8-6.8C82.2,36.3,79.2,33.3,75.4,33.3z M65.9,41c0,0.3,0,0.6,0,0.9c0,5.3,4.3,9.6,9.6,9.6
									c5.3,0,9.6-4.3,9.6-9.6c0-0.3,0-0.6,0-0.9c-1.2,4.2-5,7.2-9.5,7.2C70.9,48.3,67.1,45.2,65.9,41L65.9,41z M57.3,53.1v40.2
									h8.4V53.1H57.3z M67.1,53.1l8.3,5.5l8.3-5.5H67.1z M85.2,53.1v40.2h8.4V53.1H85.2z M67.1,59.9v3.5h3.6h9.4h3.7v-3.5h-3.7
									h-9.4H67.1z M74.1,64.6c-0.4,0-0.7,0.1-1.1,0.1c-3.6,0.7-6.2,4.3-6.2,8.2c0,3.9,2.6,7.2,6.1,8.2c-1.3-0.8-2.2-2.2-2.3-3.8v0
									c0-1.9,1.2-3.6,2.9-4.3c0.5-0.2,1.1-0.3,1.8-0.3h0c2.2,0,4-1.8,4-4C79.2,65.9,76.6,64.5,74.1,64.6L74.1,64.6z M77.9,64.8
									c1.3,0.8,2.2,2.2,2.3,3.8v0c0,1.9-1.2,3.6-2.9,4.3c-0.5,0.2-1.1,0.3-1.8,0.3h0c-2.2,0-4,1.8-4,4c0.3,2.8,2.8,4.2,5.4,4.1
									c0.4,0,0.7-0.1,1.1-0.1c3.6-0.8,6.2-4.3,6.2-8.2C84,69.1,81.5,65.8,77.9,64.8L77.9,64.8z M75.4,67c0.9,0,1.6,0.7,1.6,1.6
									c0,0.9-0.7,1.6-1.6,1.6c-0.9,0-1.6-0.7-1.6-1.6C73.9,67.8,74.6,67,75.4,67z M75.4,75.8c0.9,0,1.6,0.7,1.6,1.6
									c0,0.9-0.7,1.6-1.6,1.6c-0.9,0-1.6-0.7-1.6-1.6C73.9,76.5,74.6,75.8,75.4,75.8z M67.1,83v3.5h3.6h9.4h3.7V83h-3.7h-9.4H67.1
									z M67.1,87.8l8.3,5.5l8.3-5.5H67.1z"/>
							</g>
						</g>
						<g>
							<path class="st0" d="M56.8,140.2c4.6,1.3,9.4,2.2,14.3,2.5v-16.9l-14.3-8.3V140.2z"/>
						</g>
						<g>
							<path class="st0" d="M79.8,142.7c4.9-0.3,9.7-1.1,14.3-2.4v-24.1l-14.3,9.4V142.7z"/>
						</g>
						<g>
							<path class="st0" d="M102.8,137.1c5.1-2.3,9.9-5.2,14.3-8.6v-27.5l-14.3,9.4V137.1z"/>
						</g>
						<g>
							<path class="st0" d="M140.1,95.2V86l-14.3,9.4v25.1C132.2,113.3,137.2,104.7,140.1,95.2z"/>
						</g>
						<g>
							<path class="st0" d="M33.8,128.3c4.4,3.5,9.2,6.4,14.3,8.7v-19.4l-14.3,8.3V128.3z"/>
						</g>
						<g>
							<path class="st0" d="M75.5,120.2l-23-13.3l-25.8,14.9c1.1,1.1,2.1,2.2,3.3,3.2l22.5-13l23,13.3l64.6-42.4L75.5,120.2z"/>
						</g>
					</g>
				</g>
			</g>
		</g>
	</g>
</g>
</svg>
