<?xml version="1.0" standalone="no"?>
<!DOCTYPE svg PUBLIC "-//W3C//DTD SVG 1.1//EN" "http://www.w3.org/Graphics/SVG/1.1/DTD/svg11.dtd">
<svg width="100%" height="100%" viewBox="0 0 549 549" version="1.1" xmlns="http://www.w3.org/2000/svg" xmlns:xlink="http://www.w3.org/1999/xlink" xml:space="preserve" style="fill-rule:evenodd;clip-rule:evenodd;stroke-linejoin:round;stroke-miterlimit:1.41421;">
    <path d="M486.206,196.121L473.04,196.121L473.04,132.596C473.04,132.2 472.978,131.801 472.931,131.396C472.91,128.876 472.102,126.399 470.375,124.436L364.657,3.677C364.624,3.646 364.593,3.635 364.572,3.602C363.942,2.898 363.208,2.312 362.429,1.806C362.2,1.652 361.968,1.523 361.727,1.387C361.055,1.022 360.34,0.715 359.606,0.494C359.406,0.442 359.227,0.36 359.029,0.308C358.23,0.118 357.401,0 356.562,0L96.757,0C84.894,0 75.256,9.649 75.256,21.502L75.256,196.115L62.092,196.115C45.121,196.115 31.36,209.871 31.36,226.848L31.36,386.66C31.36,403.621 45.121,417.391 62.092,417.391L75.256,417.391L75.256,526.79C75.256,538.644 84.894,548.291 96.757,548.291L451.533,548.291C463.386,548.291 473.034,538.644 473.034,526.79L473.034,417.392L486.2,417.392C503.166,417.392 516.929,403.628 516.929,386.661L516.929,226.854C516.93,209.872 503.176,196.121 486.206,196.121ZM96.757,21.502L345.811,21.502L345.811,131.508C345.811,137.448 350.628,142.259 356.562,142.259L451.534,142.259L451.534,196.12L96.757,196.12L96.757,21.502ZM314.576,314.661C293.452,307.302 279.668,295.616 279.668,277.117C279.668,255.419 297.778,238.82 327.784,238.82C342.115,238.82 352.687,241.834 360.226,245.233L353.815,268.433C348.724,265.987 339.669,262.396 327.217,262.396C314.765,262.396 308.729,268.058 308.729,274.662C308.729,282.777 315.9,286.358 332.309,292.583C354.755,300.888 365.322,312.583 365.322,330.504C365.322,351.827 348.907,369.939 314.004,369.939C299.48,369.939 285.143,366.17 277.973,362.202L283.816,338.432C291.554,342.39 303.443,346.359 315.701,346.359C328.919,346.359 335.889,340.889 335.889,332.585C335.894,324.667 329.858,320.13 314.576,314.661ZM265.917,343.9L265.917,368.057L186.478,368.057L186.478,240.882L215.355,240.882L215.355,343.9L265.917,343.9ZM94.237,368.057L61.411,368.057L98.199,303.704L62.726,240.877L95.747,240.877L106.872,264.087C110.646,271.823 113.478,278.041 116.5,285.222L116.867,285.222C119.894,277.107 122.344,271.447 125.542,264.087L136.298,240.877L169.125,240.877L133.277,302.943L171.017,368.046L137.815,368.046L126.3,345.024C121.591,336.169 118.57,329.559 114.984,322.2L114.609,322.2C111.964,329.559 108.764,336.169 104.798,345.024L94.237,368.057ZM451.534,520.968L96.757,520.968L96.757,417.392L451.533,417.392L451.533,520.968L451.534,520.968ZM451.728,368.057L440.216,345.035C435.501,336.172 432.483,329.57 428.897,322.21L428.531,322.21C425.885,329.57 422.673,336.172 418.704,345.035L408.153,368.057L375.317,368.057L412.105,303.704L376.634,240.877L409.654,240.877L420.793,264.087C424.563,271.823 427.386,278.041 430.411,285.222L430.788,285.222C433.801,277.107 436.247,271.447 439.459,264.087L450.211,240.877L483.046,240.877L447.197,302.943L484.93,368.046L451.728,368.046L451.728,368.057Z" style="fill:rgb(119,119,119);fill-rule:nonzero;"/>
</svg>
