<?xml version="1.0" standalone="no"?>
<!DOCTYPE svg PUBLIC "-//W3C//DTD SVG 1.1//EN" "http://www.w3.org/Graphics/SVG/1.1/DTD/svg11.dtd">
<svg width="100%" height="100%" viewBox="0 0 551 551" version="1.1" xmlns="http://www.w3.org/2000/svg" xmlns:xlink="http://www.w3.org/1999/xlink" xml:space="preserve" style="fill-rule:evenodd;clip-rule:evenodd;stroke-linejoin:round;stroke-miterlimit:1.41421;">
    <g>
        <path d="M280.821,252.316C273.407,252.316 268.381,253.028 265.744,253.742L265.744,301.367C268.861,302.084 272.689,302.326 277.95,302.326C297.338,302.326 309.298,292.513 309.298,276.002C309.298,261.167 299.01,252.316 280.821,252.316Z" style="fill:rgb(119,119,119);fill-rule:nonzero;"/>
        <path d="M170.245,276.002C170.245,261.167 159.965,252.316 141.777,252.316C134.365,252.316 129.337,253.028 126.7,253.742L126.7,301.367C129.816,302.084 133.65,302.326 138.905,302.326C158.291,302.326 170.245,292.513 170.245,276.002Z" style="fill:rgb(119,119,119);fill-rule:nonzero;"/>
        <path d="M488.426,197.019L475.2,197.019L475.2,133.203C475.2,132.805 475.137,132.404 475.084,132.001C475.063,129.467 474.257,126.978 472.522,125.006L366.325,3.694C366.293,3.663 366.262,3.652 366.24,3.618C365.607,2.911 364.869,2.323 364.089,1.814C363.858,1.659 363.625,1.529 363.383,1.395C362.707,1.026 361.99,0.72 361.252,0.499C361.052,0.443 360.872,0.361 360.672,0.309C359.87,0.119 359.037,0 358.193,0L97.2,0C85.282,0 75.6,9.693 75.6,21.601L75.6,197.014L62.377,197.014C45.328,197.014 31.504,210.832 31.504,227.887L31.504,388.432C31.504,405.475 45.328,419.302 62.377,419.302L75.601,419.302L75.601,529.2C75.601,541.107 85.283,550.801 97.201,550.801L453.601,550.801C465.508,550.801 475.201,541.108 475.201,529.2L475.201,419.302L488.427,419.302C505.471,419.302 519.298,405.475 519.298,388.432L519.298,227.892C519.297,210.838 505.47,197.019 488.426,197.019ZM97.2,21.605L347.393,21.605L347.393,132.118C347.393,138.085 352.234,142.918 358.193,142.918L453.6,142.918L453.6,197.026L97.2,197.026L97.2,21.605ZM345.432,275.044C345.432,290.84 340.169,304.235 330.603,313.327C318.147,325.045 299.722,330.318 278.182,330.318C273.402,330.318 269.094,330.07 265.745,329.6L265.745,387.271L229.609,387.271L229.609,228.14C240.857,226.229 256.659,224.786 278.911,224.786C301.399,224.786 317.435,229.097 328.199,237.714C338.492,245.854 345.432,259.25 345.432,275.044ZM90.563,387.271L90.563,228.14C101.812,226.229 117.613,224.786 139.865,224.786C162.356,224.786 178.39,229.097 189.153,237.714C199.449,245.854 206.384,259.251 206.384,275.045C206.384,290.841 201.124,304.236 191.555,313.328C179.101,325.051 160.676,330.319 139.137,330.319C134.356,330.319 130.048,330.071 126.694,329.601L126.694,387.272L90.563,387.272L90.563,387.271ZM453.601,523.353L97.2,523.353L97.2,419.302L453.6,419.302L453.6,523.353L453.601,523.353ZM480.41,256.619L436.377,256.619L436.377,387.271L399.77,387.271L399.77,256.619L356.454,256.619L356.454,225.991L480.41,225.991L480.41,256.619Z" style="fill:rgb(119,119,119);fill-rule:nonzero;"/>
    </g>
</svg>
