<?xml version="1.0" standalone="no"?>
<!DOCTYPE svg PUBLIC "-//W3C//DTD SVG 1.1//EN" "http://www.w3.org/Graphics/SVG/1.1/DTD/svg11.dtd">
<svg width="100%" height="100%" viewBox="0 0 551 551" version="1.1" xmlns="http://www.w3.org/2000/svg" xmlns:xlink="http://www.w3.org/1999/xlink" xml:space="preserve" style="fill-rule:evenodd;clip-rule:evenodd;stroke-linejoin:round;stroke-miterlimit:1.41421;">
    <g>
        <path d="M146.747,276.708C146.747,262.71 137.036,254.356 119.86,254.356C112.87,254.356 108.134,255.031 105.656,255.711L105.656,300.638C108.588,301.314 112.195,301.534 117.176,301.534C135.449,301.546 146.747,292.28 146.747,276.708Z" style="fill:rgb(119,119,119);fill-rule:nonzero;"/>
        <path d="M488.426,197.019L475.2,197.019L475.2,133.203C475.2,132.805 475.137,132.404 475.084,132.001C475.063,129.467 474.257,126.978 472.522,125.006L366.325,3.694C366.293,3.663 366.262,3.652 366.24,3.618C365.607,2.911 364.869,2.323 364.089,1.814C363.858,1.659 363.625,1.529 363.383,1.395C362.707,1.026 361.99,0.72 361.252,0.499C361.052,0.443 360.872,0.361 360.672,0.309C359.87,0.119 359.037,0 358.193,0L97.2,0C85.282,0 75.6,9.693 75.6,21.601L75.6,197.014L62.377,197.014C45.328,197.014 31.504,210.832 31.504,227.887L31.504,388.432C31.504,405.475 45.328,419.302 62.377,419.302L75.601,419.302L75.601,529.2C75.601,541.107 85.283,550.801 97.201,550.801L453.601,550.801C465.508,550.801 475.201,541.108 475.201,529.2L475.201,419.302L488.427,419.302C505.471,419.302 519.298,405.475 519.298,388.432L519.298,227.892C519.297,210.838 505.47,197.019 488.426,197.019ZM97.2,21.605L347.393,21.605L347.393,132.118C347.393,138.085 352.234,142.918 358.193,142.918L453.6,142.918L453.6,197.026L97.2,197.026L97.2,21.605ZM234.344,335.86L234.344,381.691L202.743,381.691L202.743,229.524L242.927,229.524L274.538,285.283C283.563,301.314 292.602,320.266 299.363,337.437L300.038,337.437C297.781,317.334 297.105,296.794 297.105,273.997L297.105,229.524L328.719,229.524L328.719,381.691L292.602,381.691L260.086,322.988C251.037,306.735 241.115,287.096 233.648,269.261L232.983,269.483C233.906,289.58 234.344,311.027 234.344,335.86ZM71.556,381.691L71.556,231.56C82.169,229.756 97.072,228.401 118.062,228.401C139.277,228.401 154.415,232.462 164.571,240.593C174.269,248.266 180.826,260.906 180.826,275.812C180.826,290.709 175.867,303.361 166.827,311.935C155.089,322.998 137.704,327.966 117.386,327.966C112.864,327.966 108.793,327.735 105.65,327.291L105.65,381.702L71.556,381.702L71.556,381.691ZM453.601,523.353L97.2,523.353L97.2,419.302L453.6,419.302L453.6,523.353L453.601,523.353ZM485.652,374.688C475.042,378.295 454.939,383.273 434.847,383.273C407.088,383.273 386.975,376.27 372.99,362.728C358.995,349.628 351.306,329.758 351.538,307.41C351.76,256.841 388.568,227.947 438.455,227.947C458.099,227.947 473.238,231.776 480.674,235.393L473.46,262.936C465.091,259.319 454.708,256.386 438.002,256.386C409.346,256.386 387.661,272.642 387.661,305.606C387.661,336.988 407.31,355.498 435.533,355.498C443.428,355.498 449.751,354.597 452.467,353.241L452.467,321.406L428.974,321.406L428.974,294.537L485.653,294.537L485.653,374.688L485.652,374.688Z" style="fill:rgb(119,119,119);fill-rule:nonzero;"/>
    </g>
</svg>
