<?xml version="1.0" standalone="no"?>
<!DOCTYPE svg PUBLIC "-//W3C//DTD SVG 1.1//EN" "http://www.w3.org/Graphics/SVG/1.1/DTD/svg11.dtd">
<svg width="100%" height="100%" viewBox="0 0 551 551" version="1.1" xmlns="http://www.w3.org/2000/svg" xmlns:xlink="http://www.w3.org/1999/xlink" xml:space="preserve" style="fill-rule:evenodd;clip-rule:evenodd;stroke-linejoin:round;stroke-miterlimit:1.41421;">
    <g>
        <path d="M252.63,250.539C245.221,250.539 240.192,251.259 237.558,251.981L237.558,299.595C240.675,300.313 244.503,300.555 249.761,300.555C269.149,300.555 281.117,290.736 281.117,274.235C281.117,259.396 270.82,250.539 252.63,250.539Z" style="fill:rgb(119,119,119);fill-rule:nonzero;"/>
        <path d="M488.426,197.019L475.2,197.019L475.2,133.203C475.2,132.805 475.137,132.404 475.084,132.001C475.063,129.467 474.257,126.978 472.522,125.006L366.325,3.694C366.293,3.663 366.262,3.652 366.24,3.618C365.607,2.911 364.869,2.323 364.089,1.814C363.858,1.659 363.625,1.529 363.383,1.395C362.707,1.026 361.99,0.72 361.252,0.499C361.052,0.443 360.872,0.361 360.672,0.309C359.87,0.119 359.037,0 358.193,0L97.2,0C85.282,0 75.6,9.693 75.6,21.601L75.6,197.014L62.377,197.014C45.328,197.014 31.504,210.832 31.504,227.887L31.504,388.432C31.504,405.475 45.328,419.302 62.377,419.302L75.601,419.302L75.601,529.2C75.601,541.107 85.283,550.801 97.201,550.801L453.601,550.801C465.508,550.801 475.201,541.108 475.201,529.2L475.201,419.302L488.427,419.302C505.471,419.302 519.298,405.475 519.298,388.432L519.298,227.892C519.297,210.838 505.47,197.019 488.426,197.019ZM97.2,21.605L347.393,21.605L347.393,132.118C347.393,138.085 352.234,142.918 358.193,142.918L453.6,142.918L453.6,197.026L97.2,197.026L97.2,21.605ZM317.24,273.272C317.24,289.063 311.976,302.463 302.411,311.565C289.96,323.288 271.535,328.545 250.009,328.545C245.221,328.545 240.907,328.314 237.558,327.833L237.558,385.498L201.427,385.498L201.427,226.381C212.68,224.456 228.469,223.027 250.723,223.027C273.214,223.027 289.247,227.33 300.027,235.949C310.306,244.081 317.24,257.484 317.24,273.272ZM87.033,384.302L91.109,354.871C96.137,356.548 102.589,357.75 109.767,357.75C125.092,357.75 134.655,350.8 134.655,325.678L134.655,224.219L171.023,224.219L171.023,326.153C171.023,372.1 149.003,388.126 113.595,388.126C105.227,388.131 94.216,386.707 87.033,384.302ZM453.601,523.353L97.2,523.353L97.2,419.302L453.6,419.302L453.6,523.353L453.601,523.353ZM475.189,378.085C463.947,381.913 442.652,387.176 421.337,387.176C391.921,387.176 370.616,379.757 355.788,365.403C340.948,351.528 332.801,330.471 333.049,306.778C333.28,253.176 372.283,222.548 425.176,222.548C445.995,222.548 462.037,226.609 469.926,230.442L462.269,259.633C453.41,255.804 442.399,252.693 424.691,252.693C394.305,252.693 371.345,269.927 371.345,304.863C371.345,338.123 392.154,357.745 422.07,357.745C430.444,357.745 437.147,356.785 440.015,355.346L440.015,321.607L415.124,321.607L415.124,293.135L475.188,293.135L475.188,378.085L475.189,378.085Z" style="fill:rgb(119,119,119);fill-rule:nonzero;"/>
    </g>
</svg>
