<?xml version="1.0" encoding="UTF-8" standalone="no"?>
<!DOCTYPE svg PUBLIC "-//W3C//DTD SVG 1.1//EN" "http://www.w3.org/Graphics/SVG/1.1/DTD/svg11.dtd">
<svg width="100%" height="100%" viewBox="0 0 549 549" version="1.1" xmlns="http://www.w3.org/2000/svg" xmlns:xlink="http://www.w3.org/1999/xlink" xml:space="preserve" xmlns:serif="http://www.serif.com/" style="fill-rule:evenodd;clip-rule:evenodd;stroke-linejoin:round;stroke-miterlimit:2;">
    <g>
        <path d="M486.2,196.124L473.036,196.124L473.036,132.59C473.036,132.194 472.972,131.795 472.92,131.394C472.899,128.871 472.096,126.394 470.369,124.431L364.656,3.677C364.625,3.646 364.592,3.635 364.571,3.602C363.942,2.898 363.207,2.312 362.43,1.806C362.199,1.652 361.968,1.523 361.726,1.388C361.054,1.022 360.34,0.717 359.605,0.496C359.406,0.441 359.228,0.362 359.029,0.308C358.229,0.118 357.4,0 356.562,0L96.757,0C84.893,0 75.256,9.649 75.256,21.502L75.256,196.118L62.093,196.118C45.121,196.118 31.36,209.871 31.36,226.848L31.36,386.66C31.36,403.621 45.121,417.391 62.093,417.391L75.256,417.391L75.256,526.79C75.256,538.644 84.893,548.291 96.757,548.291L451.534,548.291C463.387,548.291 473.036,538.644 473.036,526.79L473.036,417.392L486.2,417.392C503.166,417.392 516.929,403.628 516.929,386.661L516.929,226.854C516.93,209.872 503.166,196.124 486.2,196.124ZM96.757,21.502L345.81,21.502L345.81,131.508C345.81,137.451 350.628,142.259 356.561,142.259L451.534,142.259L451.534,196.123L96.757,196.123L96.757,21.502ZM354.739,298.02C354.739,346.897 325.105,376.525 281.531,376.525C237.302,376.525 211.425,343.133 211.425,300.676C211.425,255.999 239.953,222.607 283.962,222.607C329.736,222.607 354.739,256.88 354.739,298.02ZM64.345,373.432L64.345,227.037C76.729,225.042 92.87,223.935 109.907,223.935C138.212,223.935 156.564,229.024 170.94,239.856C186.42,251.359 196.156,269.717 196.156,296.03C196.156,324.56 185.764,344.24 171.392,356.403C155.688,369.453 131.801,375.641 102.606,375.641C85.125,375.642 72.746,374.536 64.345,373.432ZM451.534,520.962L96.757,520.962L96.757,417.392L451.534,417.392L451.534,520.962ZM453.16,348.447C463.334,348.447 474.615,346.224 481.245,343.58L486.338,369.895C480.142,373.003 466.211,376.304 448.08,376.304C396.552,376.304 370.011,344.241 370.011,301.778C370.011,250.925 406.278,222.607 451.386,222.607C468.856,222.607 482.137,226.145 488.112,229.245L481.251,255.999C474.4,253.127 464.889,250.468 452.942,250.468C426.184,250.468 405.392,266.615 405.392,299.784C405.387,329.642 423.082,348.447 453.16,348.447Z" style="fill:rgb(119,119,119);fill-rule:nonzero;"/>
        <path d="M160.322,297.137C160.543,266.169 142.405,249.806 113.442,249.806C105.922,249.806 101.046,250.467 98.177,251.135L98.177,348.667C101.045,349.332 105.697,349.332 109.901,349.332C140.417,349.548 160.322,332.739 160.322,297.137Z" style="fill:rgb(119,119,119);fill-rule:nonzero;"/>
        <path d="M247.032,300.004C247.032,329.206 260.746,349.769 283.301,349.769C306.083,349.769 319.128,328.089 319.128,299.123C319.128,272.355 306.304,249.365 283.08,249.365C260.311,249.371 247.032,271.043 247.032,300.004Z" style="fill:rgb(119,119,119);fill-rule:nonzero;"/>
    </g>
</svg>
