<?xml version="1.0" standalone="no"?>
<!DOCTYPE svg PUBLIC "-//W3C//DTD SVG 1.1//EN" "http://www.w3.org/Graphics/SVG/1.1/DTD/svg11.dtd">
<svg width="100%" height="100%" viewBox="0 0 551 551" version="1.1" xmlns="http://www.w3.org/2000/svg" xmlns:xlink="http://www.w3.org/1999/xlink" xml:space="preserve" style="fill-rule:evenodd;clip-rule:evenodd;stroke-linejoin:round;stroke-miterlimit:1.41421;">
    <g>
        <path d="M160.381,282.225C160.381,267.393 150.082,258.541 131.907,258.541C124.493,258.541 119.47,259.256 116.836,259.973L116.836,307.6C119.95,308.307 123.778,308.549 129.028,308.549C148.419,308.549 160.381,298.74 160.381,282.225Z" style="fill:rgb(119,119,119);fill-rule:nonzero;"/>
        <path d="M272.875,259.019C264.73,259.019 259.478,259.736 256.356,260.454L256.356,365.977C259.472,366.706 264.498,366.706 269.046,366.706C302.063,366.937 323.6,348.76 323.6,310.232C323.842,276.719 304.215,259.019 272.875,259.019Z" style="fill:rgb(119,119,119);fill-rule:nonzero;"/>
        <path d="M488.426,197.019L475.2,197.019L475.2,133.203C475.2,132.805 475.137,132.404 475.084,132.001C475.063,129.467 474.257,126.978 472.522,125.006L366.325,3.694C366.293,3.663 366.262,3.652 366.24,3.618C365.607,2.911 364.869,2.323 364.089,1.814C363.858,1.659 363.625,1.529 363.383,1.395C362.707,1.026 361.99,0.72 361.252,0.499C361.052,0.443 360.872,0.361 360.672,0.309C359.87,0.119 359.037,0 358.193,0L97.2,0C85.282,0 75.6,9.693 75.6,21.601L75.6,197.014L62.377,197.014C45.328,197.014 31.504,210.832 31.504,227.887L31.504,388.432C31.504,405.475 45.328,419.302 62.377,419.302L75.601,419.302L75.601,529.2C75.601,541.107 85.283,550.801 97.201,550.801L453.601,550.801C465.508,550.801 475.201,541.108 475.201,529.2L475.201,419.302L488.427,419.302C505.471,419.302 519.298,405.475 519.298,388.432L519.298,227.892C519.297,210.838 505.47,197.019 488.426,197.019ZM97.2,21.605L347.393,21.605L347.393,132.118C347.393,138.085 352.234,142.918 358.193,142.918L453.6,142.918L453.6,197.026L97.2,197.026L97.2,21.605ZM362.359,309.023C362.359,339.899 351.116,361.188 335.539,374.356C318.568,388.473 292.719,395.17 261.143,395.17C242.243,395.17 228.846,393.973 219.742,392.781L219.742,234.365C233.141,232.216 250.62,231.019 269.046,231.019C299.658,231.019 319.524,236.527 335.085,248.245C351.828,260.69 362.359,280.547 362.359,309.023ZM80.7,393.499L80.7,234.365C91.941,232.461 107.742,231.019 129.996,231.019C152.487,231.019 168.523,235.327 179.287,243.947C189.579,252.078 196.502,265.481 196.502,281.275C196.502,297.074 191.252,310.473 181.673,319.56C169.231,331.288 150.808,336.556 129.266,336.556C124.488,336.556 120.166,336.313 116.831,335.833L116.831,393.503L80.7,393.503L80.7,393.499ZM453.601,523.353L97.2,523.353L97.2,419.302L453.6,419.302L453.6,523.353L453.601,523.353ZM484.898,262.127L422.909,262.127L422.909,298.978L480.822,298.978L480.822,328.652L422.909,328.652L422.909,393.5L386.316,393.5L386.316,232.216L484.898,232.216L484.898,262.127Z" style="fill:rgb(119,119,119);fill-rule:nonzero;"/>
    </g>
</svg>
