<svg id="Capa_1" enable-background="new 0 0 512 512" height="512" viewBox="0 0 512 512" width="512" xmlns="http://www.w3.org/2000/svg"><g><path d="m436.101 107.197c-42.499-42.072-97.193-67.481-156.031-72.941v-10.189c0-13.271-10.796-24.067-24.067-24.067s-24.066 10.796-24.066 24.067v10.184c-45.859 4.247-89.291 20.631-126.802 48.035-3.345 2.443-4.075 7.136-1.632 10.48 2.444 3.345 7.136 4.075 10.48 1.632 32.281-23.583 69.224-38.5 108.319-43.94-12.114 13.173-22.999 33.624-31.986 60.587-14.449 43.348-22.995 99.564-24.428 159.89-19.143-19.683-45.923-30.719-75.6-30.719-29.685 0-55.713 11.176-74.698 31.774 4.222-60.864 30.842-116.863 75.876-158.958 3.026-2.828 3.186-7.574.357-10.601-2.828-3.026-7.573-3.186-10.601-.357-25.031 23.396-44.819 51.039-58.816 82.16-14.478 32.196-22.013 66.546-22.395 102.098-.029 2.738 1.017 5.321 2.945 7.271 1.933 1.954 4.51 3.031 7.259 3.032 3.353 0 6.494-1.655 8.4-4.427 16.407-23.854 41.86-36.99 71.672-36.99 30.358 0 57.103 13.291 73.376 36.465 2.176 3.099 5.718 4.95 9.474 4.952h.004c3.757 0 7.3-1.85 9.479-4.951 11.801-16.807 29.112-28.409 49.316-33.52v60.087c0 4.142 3.358 7.5 7.5 7.5s7.5-3.358 7.5-7.5v-62.624c2.981-.267 6.004-.409 9.066-.409s6.085.142 9.067.409v125.408h-18.133v-32.785c0-4.142-3.358-7.5-7.5-7.5s-7.5 3.358-7.5 7.5v89.983c0 40.675 33.092 73.767 73.767 73.767s73.767-33.092 73.767-73.767v-16.567c0-13.27-10.796-24.066-24.066-24.066s-24.067 10.796-24.067 24.066v16.567c0 14.134-11.499 25.633-25.633 25.633-14.135 0-25.634-11.499-25.634-25.633v-180.07c20.199 5.111 37.509 16.714 49.311 33.521 2.178 3.1 5.721 4.949 9.477 4.949h.004c3.757-.001 7.299-1.853 9.475-4.952 16.272-23.174 43.017-36.465 73.376-36.465 29.811 0 55.266 13.137 71.67 36.987 1.906 2.774 5.047 4.431 8.404 4.431 2.747-.001 5.325-1.078 7.258-3.033 1.929-1.951 2.975-4.533 2.944-7.27-.728-67.791-27.679-131.409-75.888-179.134zm-130.397 371.67c22.405 0 40.633-18.228 40.633-40.633v-16.567c0-4.999 4.067-9.066 9.067-9.066 4.999 0 9.066 4.067 9.066 9.066v16.567c0 32.404-26.362 58.767-58.767 58.767s-58.767-26.363-58.767-58.767v-42.2h18.133v42.2c.001 22.405 18.229 40.633 40.635 40.633zm-58.767-454.8c0-5 4.067-9.067 9.066-9.067s9.066 4.067 9.066 9.067v9.242c-3.013-.104-6.032-.176-9.062-.176-.001 0-.003 0-.004 0s-.001 0-.002 0c-.002 0-.004 0-.005 0-3.028 0-6.047.061-9.059.165zm9.06 216.15c-29.414 0-55.987 10.836-75.093 30.19 1.456-58.517 9.721-112.852 23.643-154.618 14.332-42.996 33.087-67.656 51.457-67.656s37.125 24.66 51.457 67.656c13.922 41.768 22.187 96.105 23.643 154.625-19.108-19.359-45.685-30.197-75.107-30.197zm165.715 0c-29.675 0-56.452 11.033-75.594 30.711-1.434-60.323-9.979-116.536-24.428-159.883-8.973-26.917-19.835-47.346-31.925-60.522 111.022 15.767 198.56 108.035 206.63 221.452-18.983-20.589-45.005-31.758-74.683-31.758z"/></g></svg>