<?xml version="1.0" encoding="iso-8859-1"?>
<!-- Generator: Adobe Illustrator 19.0.0, SVG Export Plug-In . SVG Version: 6.00 Build 0)  -->
<svg version="1.1" id="Layer_1" xmlns="http://www.w3.org/2000/svg" xmlns:xlink="http://www.w3.org/1999/xlink" x="0px" y="0px"
	 viewBox="0 0 511.999 511.999" style="enable-background:new 0 0 511.999 511.999;" xml:space="preserve">
<g>
	<g>
		<path d="M511.934,238.057c-3.964-58.592-27.101-112.43-66.912-155.693c-3.121-3.393-8.404-3.613-11.795-0.49
			c-3.393,3.122-3.613,8.402-0.49,11.795c35.18,38.235,56.431,85.302,61.775,136.604H364.866
			c-9.666-41.405-42.109-73.73-83.546-83.242V17.444c41.5,4.293,81.016,19.299,114.779,43.667c3.74,2.697,8.957,1.857,11.655-1.882
			c2.699-3.74,1.855-8.957-1.882-11.655C367.159,19.633,321.395,3.193,273.523,0.03c-2.303-0.152-4.568,0.658-6.254,2.235
			c-1.687,1.578-2.643,3.786-2.643,6.095v145.535c0,4.089,2.964,7.578,7.001,8.238c40.051,6.547,71.465,37.839,78.169,77.867
			c0.672,4.023,4.154,6.969,8.232,6.969h145.577c2.312,0,4.521-0.959,6.1-2.649C511.282,242.63,512.09,240.363,511.934,238.057z"/>
	</g>
</g>
<g>
	<g>
		<path d="M509.742,266.315c-1.578-1.683-3.783-2.638-6.091-2.638H358.157c-4.103,0-7.598,2.981-8.243,7.033
			c-2.288,14.351-7.99,28.209-16.488,40.078c-2.379,3.32-2.005,7.875,0.884,10.763l102.96,102.96
			c1.568,1.567,3.693,2.444,5.904,2.444c0.092,0,0.187-0.001,0.279-0.004c2.311-0.079,4.484-1.111,6.005-2.851
			c37.258-42.626,58.88-95.028,62.525-151.539C512.13,270.26,511.32,267.999,509.742,266.315z M442.648,406.276l-91.691-91.691
			c6.555-10.528,11.34-22.153,14.085-34.213h129.545C489.889,326.831,472.07,370.032,442.648,406.276z"/>
	</g>
</g>
<g>
	<g>
		<path d="M425.482,436.348L322.56,333.426c-2.9-2.899-7.476-3.265-10.8-0.858c-16.243,11.763-35.431,17.981-55.489,17.981
			c-52.291,0-94.832-42.542-94.832-94.832c0-46.697,33.425-86.054,79.478-93.582c4.037-0.659,7.001-4.147,7.001-8.238V8.361
			c0-2.311-0.957-4.517-2.643-6.095s-3.946-2.393-6.255-2.235C177.231,4.114,119.003,30.564,75.06,74.507
			C26.657,122.909,0,187.264,0,255.717s26.657,132.808,75.06,181.211s112.758,75.06,181.211,75.06
			c62.247,0,122.199-22.538,168.815-63.463c1.735-1.524,2.76-3.696,2.836-6.003C427.998,440.216,427.114,437.981,425.482,436.348z
			 M256.271,495.292c-63.993,0-124.156-24.92-169.406-70.17C41.616,379.872,16.696,319.71,16.696,255.717
			s24.92-124.155,70.17-169.404c38.964-38.965,89.933-63.216,144.355-68.867h0v129.59c-23.058,5.324-44.012,17.981-59.593,36.133
			c-17.337,20.198-26.886,45.961-26.886,72.548c0,61.497,50.032,111.528,111.528,111.528c21.201,0,41.576-5.905,59.355-17.141
			l91.632,91.632C364.739,476.335,311.472,495.292,256.271,495.292z"/>
	</g>
</g>
<g>
</g>
<g>
</g>
<g>
</g>
<g>
</g>
<g>
</g>
<g>
</g>
<g>
</g>
<g>
</g>
<g>
</g>
<g>
</g>
<g>
</g>
<g>
</g>
<g>
</g>
<g>
</g>
<g>
</g>
</svg>
